<svg width="40" height="40" viewBox="0 0 40 40" fill="none" xmlns="http://www.w3.org/2000/svg">
<path d="M26.9196 26.484C26.7512 25.8171 26.666 25.1319 26.666 24.4441V15.8661C26.666 12.6263 24.0397 10 20.7999 10H19.1767C15.9491 10 13.3327 12.6165 13.3327 15.844V24.4039C13.3327 25.0874 13.2486 25.7682 13.0823 26.4312L12.6053 28.3333H27.3865L26.9196 26.484ZM26.666 33.3333C26.666 34.5638 24.8005 36.6176 22.4993 36.6176C20.1982 36.6176 18.3327 34.5768 18.3327 33.3333H26.666ZM19.9993 5C20.9198 5 21.666 5.74619 21.666 6.66667L21.6672 6.70701C26.3412 7.14406 29.9993 11.0779 29.9993 15.8661V24.4441C29.9993 24.8568 30.0504 25.2679 30.1515 25.6681L30.8243 28.3333H31.666C32.5865 28.3333 33.3327 29.0795 33.3327 30C33.3327 30.9205 32.5865 31.6667 31.666 31.6667H8.33268C7.41221 31.6667 6.66602 30.9205 6.66602 30C6.66602 29.0795 7.41221 28.3333 8.33268 28.3333H9.16768L9.84914 25.6203C9.9489 25.2225 9.99935 24.814 9.99935 24.4039V15.844C9.99935 11.0598 13.6602 7.13058 18.3335 6.70489L18.3327 6.66667C18.3327 5.74619 19.0789 5 19.9993 5Z" fill="#52555A"/>
</svg>
