<svg width="178" height="71" viewBox="0 0 178 71" fill="none" xmlns="http://www.w3.org/2000/svg">
<path d="M18.1476 42.9296C17.293 42.9296 16.8656 42.5022 16.8656 41.6476V20.0966C16.8656 19.2535 17.293 18.832 18.1476 18.832C18.9907 18.832 19.4123 19.2535 19.4123 20.0966V20.9109C20.0013 20.2179 20.7635 19.6982 21.699 19.3517C22.6345 19.0052 23.7375 18.832 25.0079 18.832H26.3245C28.5766 18.832 30.2397 19.369 31.3138 20.4431C32.3879 21.5172 32.9249 23.1803 32.9249 25.4324V29.3823C32.9249 31.6344 32.3879 33.3032 31.3138 34.3889C30.2397 35.463 28.5766 36 26.3245 36H19.4123V41.6476C19.4123 42.5022 18.9907 42.9296 18.1476 42.9296ZM19.4123 33.4534H26.3245C27.8837 33.4534 28.9462 33.1647 29.5121 32.5872C30.0896 32.0097 30.3783 30.9414 30.3783 29.3823V25.4324C30.3783 23.8733 30.0896 22.8107 29.5121 22.2448C28.9462 21.6673 27.8837 21.3786 26.3245 21.3786H25.0079C23.4256 21.3786 22.1206 21.5923 21.0927 22.0196C20.0648 22.4354 19.5046 23.0937 19.4123 23.9945V33.4534ZM40.4454 36C39.5907 36 39.1634 35.5727 39.1634 34.718V20.0966C39.1634 19.2535 39.5907 18.832 40.4454 18.832C41.2885 18.832 41.71 19.2535 41.71 20.0966V21.8983C42.3683 20.8935 43.2345 20.1313 44.3086 19.6116C45.3943 19.0918 46.6531 18.832 48.0852 18.832C48.9399 18.832 49.3672 19.2535 49.3672 20.0966C49.3672 20.9513 48.9399 21.3786 48.0852 21.3786C46.0641 21.3786 44.5165 21.7828 43.4424 22.5913C42.3683 23.3882 41.7909 24.4796 41.71 25.8655V34.718C41.71 35.5727 41.2885 36 40.4454 36ZM58.6052 36C56.3531 36 54.6842 35.463 53.5986 34.3889C52.5245 33.3148 51.9875 31.6575 51.9875 29.4169V25.4324C51.9875 23.1572 52.5245 21.4883 53.5986 20.4258C54.6842 19.3517 56.3531 18.8204 58.6052 18.832H61.4463C63.6984 18.832 65.3615 19.369 66.4356 20.4431C67.5097 21.5172 68.0467 23.1803 68.0467 25.4324V29.3823C68.0467 31.6344 67.5097 33.3032 66.4356 34.3889C65.3615 35.463 63.6984 36 61.4463 36H58.6052ZM54.5341 29.4169C54.5341 30.953 54.8228 32.0097 55.4003 32.5872C55.9777 33.1647 57.046 33.4534 58.6052 33.4534H61.4463C63.0055 33.4534 64.068 33.1647 64.6339 32.5872C65.2114 32.0097 65.5001 30.9414 65.5001 29.3823V25.4324C65.5001 23.8733 65.2114 22.8107 64.6339 22.2448C64.068 21.6673 63.0055 21.3786 61.4463 21.3786H58.6052C57.5658 21.3786 56.7515 21.4999 56.1625 21.7424C55.5735 21.9849 55.152 22.4007 54.8979 22.9897C54.6553 23.5787 54.5341 24.393 54.5341 25.4324V29.4169ZM71.7557 42.9296C71.3284 42.9296 71.0108 42.8199 70.8029 42.6004C70.595 42.381 70.491 42.0634 70.491 41.6476C70.491 41.2318 70.6008 40.9142 70.8202 40.6948C71.0396 40.4869 71.3515 40.383 71.7557 40.383C72.7489 40.383 73.4188 40.2039 73.7653 39.8459C74.1117 39.4994 74.285 38.8296 74.285 37.8363V20.0966C74.285 19.2535 74.7123 18.832 75.567 18.832C76.41 18.832 76.8316 19.2535 76.8316 20.0966V37.8363C76.8316 39.5687 76.4158 40.8507 75.5843 41.6822C74.7643 42.5138 73.4881 42.9296 71.7557 42.9296ZM75.1685 15.8696C74.1522 15.8696 73.644 15.3672 73.644 14.3624V13.4096C73.644 12.4279 74.1522 11.9371 75.1685 11.9371H76.0693C77.0395 11.9371 77.5246 12.4279 77.5246 13.4096V14.3624C77.5246 15.3672 77.0395 15.8696 76.0693 15.8696H75.1685ZM85.6292 28.4468V29.4169C85.6292 30.953 85.9179 32.0097 86.4954 32.5872C87.0728 33.1647 88.1411 33.4534 89.7003 33.4534H92.5414C93.8118 33.4534 94.7416 33.3206 95.3306 33.0549C95.9311 32.7777 96.318 32.2985 96.4913 31.617C96.5837 31.2359 96.728 30.9414 96.9244 30.7335C97.1323 30.5256 97.4383 30.4217 97.8425 30.4217C98.2699 30.4217 98.5932 30.5372 98.8127 30.7682C99.0321 30.9876 99.1072 31.311 99.0379 31.7383C98.8185 33.182 98.1659 34.2561 97.0803 34.9606C96.0062 35.6535 94.4933 36 92.5414 36H89.7003C87.4482 36 85.7793 35.463 84.6937 34.3889C83.6196 33.3148 83.0826 31.6575 83.0826 29.4169V25.4324C83.0826 23.1456 83.6196 21.471 84.6937 20.4085C85.7793 19.3344 87.4482 18.8089 89.7003 18.832H92.5414C94.7935 18.832 96.4566 19.369 97.5307 20.4431C98.6048 21.5056 99.1418 23.1687 99.1418 25.4324V27.1648C99.1418 28.0194 98.7203 28.4468 97.8772 28.4468H85.6292ZM89.7003 21.3786C88.1411 21.3555 87.0728 21.6327 86.4954 22.2102C85.9179 22.7876 85.6292 23.8617 85.6292 25.4324V25.9002H96.5952V25.4324C96.5952 23.8733 96.3065 22.8107 95.729 22.2448C95.1631 21.6673 94.1006 21.3786 92.5414 21.3786H89.7003ZM111.288 36C109.035 36 107.367 35.463 106.281 34.3889C105.207 33.3032 104.67 31.6344 104.67 29.3823V25.3978C104.67 23.1456 105.201 21.4825 106.264 20.4085C107.338 19.3344 109.012 18.8089 111.288 18.832H114.129C115.838 18.832 117.172 19.1207 118.13 19.6982C119.089 20.2756 119.69 21.1649 119.932 22.3661C120.013 22.7934 119.932 23.1225 119.69 23.3535C119.459 23.5845 119.124 23.7 118.685 23.7C118.292 23.7 118.003 23.6018 117.819 23.4055C117.634 23.1976 117.472 22.9089 117.334 22.5393C117.172 22.112 116.843 21.8117 116.346 21.6385C115.861 21.4652 115.122 21.3786 114.129 21.3786H111.288C109.74 21.3555 108.672 21.6327 108.083 22.2102C107.505 22.7761 107.216 23.8386 107.216 25.3978V29.3823C107.216 30.9414 107.505 32.0097 108.083 32.5872C108.672 33.1647 109.74 33.4534 111.288 33.4534H114.129C115.122 33.4534 115.861 33.3668 116.346 33.1935C116.843 33.0203 117.172 32.7142 117.334 32.2754C117.472 31.8942 117.634 31.6055 117.819 31.4092C118.003 31.2128 118.298 31.1147 118.702 31.1147C119.129 31.1147 119.459 31.2359 119.69 31.4785C119.932 31.7094 120.013 32.0328 119.932 32.4486C119.69 33.6497 119.089 34.5448 118.13 35.1338C117.172 35.7113 115.838 36 114.129 36H111.288ZM133.023 36C130.794 36 129.154 35.4745 128.103 34.4235C127.052 33.3725 126.526 31.7383 126.526 29.5209V21.3786H124.707C123.853 21.3786 123.425 20.9513 123.425 20.0966C123.425 19.2535 123.853 18.832 124.707 18.832H126.526V15.9042C126.526 15.0496 126.948 14.6223 127.791 14.6223C128.646 14.6223 129.073 15.0496 129.073 15.9042V18.832H133.179C134.022 18.832 134.443 19.2535 134.443 20.0966C134.443 20.9513 134.022 21.3786 133.179 21.3786H129.073V29.5209C129.073 31.0454 129.35 32.0848 129.905 32.6392C130.47 33.182 131.51 33.4534 133.023 33.4534C133.439 33.4534 133.756 33.5573 133.976 33.7652C134.195 33.9616 134.305 34.2792 134.305 34.718C134.305 35.5727 133.877 36 133.023 36Z" fill="black"/>
<path d="M95.2342 61.0289C94.8877 61.0289 94.5875 60.9018 94.3334 60.6477C94.0793 60.3936 93.9523 60.0934 93.9523 59.7469V39.2007C93.9523 38.8542 94.0793 38.5539 94.3334 38.2999C94.5875 38.0458 94.8877 37.9187 95.2342 37.9187C95.5807 37.9187 95.8752 38.0458 96.1177 38.2999C96.3718 38.5539 96.4989 38.8542 96.4989 39.2007V48.0532H110.774V39.2007C110.774 38.8542 110.895 38.5539 111.138 38.2999C111.38 38.0458 111.68 37.9187 112.038 37.9187C112.385 37.9187 112.685 38.0458 112.939 38.2999C113.193 38.5539 113.32 38.8542 113.32 39.2007V59.7469C113.32 60.0934 113.193 60.3936 112.939 60.6477C112.685 60.9018 112.385 61.0289 112.038 61.0289C111.68 61.0289 111.38 60.9018 111.138 60.6477C110.895 60.3936 110.774 60.0934 110.774 59.7469V50.5998H96.4989V59.7469C96.4989 60.0934 96.3718 60.3936 96.1177 60.6477C95.8752 60.9018 95.5807 61.0289 95.2342 61.0289ZM132.473 43.8608C133.327 43.8608 133.755 44.2882 133.755 45.1428V59.7642C133.755 60.6073 133.327 61.0289 132.473 61.0289C131.629 61.0289 131.208 60.6073 131.208 59.7642V58.8287C130.03 60.2955 128.165 61.0289 125.612 61.0289H124.642C122.39 61.0289 120.727 60.4918 119.653 59.4177C118.579 58.3436 118.042 56.6805 118.042 54.4284V45.1428C118.042 44.2882 118.463 43.8608 119.306 43.8608C120.161 43.8608 120.588 44.2882 120.588 45.1428V54.4284C120.588 55.9876 120.877 57.0559 121.455 57.6334C122.044 58.1993 123.106 58.4822 124.642 58.4822H125.612C127.137 58.4822 128.413 58.2859 129.441 57.8932C130.469 57.489 131.058 56.8596 131.208 56.0049V45.1428C131.208 44.2882 131.629 43.8608 132.473 43.8608ZM140.079 61.0289C139.224 61.0289 138.797 60.6015 138.797 59.7469V45.1255C138.797 44.2824 139.224 43.8608 140.079 43.8608C140.922 43.8608 141.343 44.2824 141.343 45.1255V46.061C142.522 44.5942 144.387 43.8608 146.939 43.8608H147.909C150.161 43.8608 151.824 44.3979 152.899 45.472C153.973 46.546 154.51 48.2091 154.51 50.4613V59.7469C154.51 60.6015 154.088 61.0289 153.245 61.0289C152.39 61.0289 151.963 60.6015 151.963 59.7469V50.4613C151.963 48.9021 151.669 47.8396 151.08 47.2737C150.502 46.6962 149.445 46.4075 147.909 46.4075H146.939C145.415 46.4075 144.138 46.6096 143.111 47.0138C142.083 47.4065 141.494 48.0301 141.343 48.8848V59.7469C141.343 60.6015 140.922 61.0289 140.079 61.0289ZM166.395 61.0289C164.166 61.0289 162.526 60.5034 161.475 59.4524C160.424 58.4014 159.898 56.7672 159.898 54.5497V46.4075H158.079C157.225 46.4075 156.798 45.9801 156.798 45.1255C156.798 44.2824 157.225 43.8608 158.079 43.8608H159.898V40.9331C159.898 40.0784 160.32 39.6511 161.163 39.6511C162.018 39.6511 162.445 40.0784 162.445 40.9331V43.8608H166.551C167.394 43.8608 167.816 44.2824 167.816 45.1255C167.816 45.9801 167.394 46.4075 166.551 46.4075H162.445V54.5497C162.445 56.0742 162.722 57.1136 163.277 57.668C163.843 58.2108 164.882 58.4822 166.395 58.4822C166.811 58.4822 167.128 58.5862 167.348 58.7941C167.567 58.9904 167.677 59.308 167.677 59.7469C167.677 60.6015 167.25 61.0289 166.395 61.0289Z" fill="#EF0D0D"/>
</svg>
